<svg version="1.1" id="Layer_1" xmlns="http://www.w3.org/2000/svg" xmlns:xlink="http://www.w3.org/1999/xlink" x="0px" y="0px"
	 width="100%" viewBox="0 0 2048 2048" enable-background="new 0 0 2048 2048" xml:space="preserve">
<path fill="#ff0000" opacity="1.000000" stroke="none" 
	d="
M1607.000000,2049.000000 
	C1588.969116,2049.000000 1570.938110,2049.000000 1552.475098,2048.559082 
	C1552.362061,2035.968506 1552.957397,2023.818970 1552.959595,2011.669556 
	C1553.011230,1714.285522 1553.012207,1416.901611 1552.907837,1119.517578 
	C1552.905884,1113.847412 1552.835327,1108.913818 1559.701538,1107.447388 
	C1559.888184,1107.407471 1559.971680,1106.884644 1560.100342,1106.585571 
	C1554.562134,1097.255005 1550.726440,1095.601074 1540.624023,1098.082397 
	C1536.420166,1099.115112 1532.196289,1100.068848 1527.969116,1101.002441 
	C1506.673828,1105.705811 1485.374512,1110.390747 1463.746094,1115.052002 
	C1462.183228,1115.692871 1460.950684,1116.363647 1459.252197,1117.024902 
	C1457.463745,1117.091187 1456.077515,1116.934570 1454.828735,1117.278076 
	C1439.203125,1121.578003 1423.594482,1125.939941 1408.001465,1130.356689 
	C1407.554810,1130.483154 1407.329102,1131.389893 1406.606812,1132.024780 
	C1397.889404,1134.866577 1389.474609,1137.374512 1381.275635,1140.456421 
	C1376.357910,1142.304688 1371.545166,1144.684082 1367.113525,1147.499023 
	C1363.087280,1150.056519 1362.328979,1153.689209 1364.139893,1158.692871 
	C1368.714233,1171.332153 1373.558960,1184.036255 1376.313965,1197.131348 
	C1380.033569,1214.811523 1382.361206,1232.828979 1384.418457,1250.801025 
	C1386.184204,1266.224609 1389.250244,1281.541870 1387.627319,1297.323486 
	C1385.692749,1316.135376 1385.644775,1335.165405 1383.195190,1353.893799 
	C1380.149658,1377.179199 1374.477173,1399.984375 1365.612305,1421.872070 
	C1364.626465,1424.306030 1363.744263,1426.917847 1363.533203,1429.505859 
	C1362.697021,1439.760986 1362.170776,1450.041016 1361.484009,1460.308716 
	C1360.786133,1470.742798 1360.111084,1481.179443 1359.288086,1491.603882 
	C1358.086914,1506.820068 1356.739380,1522.024780 1355.499146,1537.237915 
	C1354.730347,1546.666748 1354.066406,1556.104126 1353.317993,1565.534668 
	C1352.057861,1581.412720 1350.744019,1597.286621 1349.499146,1613.165894 
	C1348.733765,1622.928589 1348.094849,1632.701294 1347.327637,1642.463867 
	C1346.079590,1658.342773 1344.753540,1674.215576 1343.497314,1690.093750 
	C1342.712036,1700.020752 1342.027588,1709.955933 1341.238647,1719.882568 
	C1340.016113,1735.264404 1338.691406,1750.638428 1337.508667,1766.023193 
	C1336.707153,1776.450195 1336.148071,1786.895874 1335.350098,1797.323120 
	C1334.122314,1813.369873 1332.775269,1829.407471 1331.493286,1845.450073 
	C1330.739868,1854.879883 1330.078491,1864.317261 1329.261475,1873.741455 
	C1328.058105,1887.625000 1326.639404,1901.490479 1325.522461,1915.380493 
	C1324.351685,1929.939087 1323.456055,1944.519409 1322.390747,1959.086670 
	C1321.108032,1976.629517 1319.773071,1994.168579 1318.234863,2012.088501 
	C1317.754150,2016.710205 1317.499634,2020.952759 1317.262207,2024.907715 
	C1320.921997,2025.807861 1323.788330,2026.512817 1326.633545,2027.627197 
	C1326.614502,2029.948730 1326.616821,2031.860840 1326.326294,2033.915283 
	C1320.178833,2040.074951 1320.500854,2042.187988 1328.039551,2045.429443 
	C1329.231201,2046.768921 1330.115601,2047.884399 1331.000000,2049.000000 
	C887.691162,2049.000000 444.382324,2049.000000 1.036744,2049.000000 
	C1.036744,1366.395508 1.036744,683.791077 1.036744,1.093323 
	C683.566711,1.093323 1366.133423,1.093323 2049.000000,1.093323 
	C2049.000000,661.030884 2049.000000,1321.061890 2048.747070,1981.911865 
	C2047.676147,1981.762085 2046.619629,1980.909668 2046.079590,1979.804810 
	C2042.772461,1973.038330 2039.237915,1966.692749 2039.067871,1958.477661 
	C2038.752686,1943.255493 2036.755981,1928.070923 2035.544556,1912.863770 
	C2034.741089,1902.776367 2034.127319,1892.674194 2033.353760,1882.584229 
	C2032.111450,1866.380493 2030.778442,1850.183472 2029.539795,1833.979370 
	C2028.768433,1823.889160 2028.157959,1813.786377 2027.372559,1803.697266 
	C2026.137085,1787.826172 2024.754639,1771.966309 2023.549927,1756.092896 
	C2022.733887,1745.339478 2022.215576,1734.563477 2021.385254,1723.811279 
	C2020.185303,1708.270752 2018.714844,1692.750732 2017.561279,1677.207031 
	C2016.407227,1661.655273 2015.566040,1646.080322 2014.450439,1630.525391 
	C2014.060303,1625.085205 2013.261719,1619.674561 2012.719727,1613.784424 
	C2012.749878,1611.338135 2012.730835,1609.357178 2012.666260,1607.377686 
	C2012.470825,1601.392212 2011.421387,1600.534180 2005.850220,1602.495972 
	C2004.659058,1602.915405 2003.273804,1604.627563 2003.147339,1605.863770 
	C2002.832275,1608.943848 2003.190552,1612.092896 2003.309082,1615.668701 
	C2003.361206,1642.672241 2003.398193,1669.221313 2003.401001,1695.770508 
	C2003.406616,1750.236206 2003.396973,1804.701904 2003.387329,1859.167603 
	C2003.379395,1904.118286 2003.358521,1949.068848 2003.352417,1994.019531 
	C2003.350586,2007.976196 2003.488892,2021.934204 2003.329346,2035.888916 
	C2003.279297,2040.263794 2002.464600,2044.629883 2002.000000,2049.000000 
	C1984.969116,2049.000000 1967.938110,2049.000000 1950.348877,2048.541016 
	C1949.748413,2023.864746 1949.716675,1999.647461 1949.662109,1975.430176 
	C1949.548828,1925.141724 1949.307495,1874.853149 1949.335327,1824.564819 
	C1949.363403,1773.910767 1949.797241,1723.256958 1949.792969,1672.603027 
	C1949.787598,1608.516113 1949.442993,1544.429321 1949.391968,1480.342407 
	C1949.358887,1438.869019 1949.654053,1397.395264 1949.686035,1355.921753 
	C1949.734741,1292.679077 1949.647705,1229.436279 1949.706421,1166.193604 
	C1949.716797,1154.958008 1949.843384,1143.702515 1950.577148,1132.499390 
	C1950.811279,1128.925537 1949.786377,1127.950562 1946.864990,1126.899658 
	C1922.658691,1118.192017 1897.674194,1112.573242 1872.443726,1107.914062 
	C1870.937988,1107.636108 1869.336426,1107.878052 1867.596924,1107.878052 
	C1867.381348,1112.214966 1867.041870,1115.865967 1867.041138,1119.517090 
	C1867.012817,1260.483276 1867.015259,1401.449463 1867.013672,1542.415649 
	C1867.011841,1708.709961 1867.014282,1875.004150 1866.965942,2041.298462 
	C1866.965210,2043.865723 1866.336060,2046.432861 1866.000000,2049.000000 
	C1848.969116,2049.000000 1831.938110,2049.000000 1814.363525,2048.538574 
	C1813.822021,1972.190796 1813.834961,1896.304688 1813.823242,1820.418579 
	C1813.814941,1767.221436 1813.802490,1714.024414 1813.738403,1660.827271 
	C1813.663818,1599.027222 1813.458496,1537.227295 1813.446411,1475.427246 
	C1813.437134,1428.305298 1813.674561,1381.183472 1813.739624,1334.061523 
	C1813.801880,1289.032104 1813.777222,1244.002686 1813.802612,1198.973267 
	C1813.821289,1165.881714 1813.870239,1132.790039 1813.841797,1099.698486 
	C1813.840820,1098.506836 1813.361572,1096.450928 1812.750732,1096.307373 
	C1811.544434,1096.024414 1809.728394,1096.394287 1808.805542,1097.214966 
	C1806.107910,1099.613892 1803.193848,1102.033203 1801.306885,1105.036499 
	C1790.140015,1122.810425 1774.990479,1134.773071 1753.966064,1138.496948 
	C1747.115967,1139.710205 1740.248657,1140.825317 1733.033081,1142.045532 
	C1733.033081,1440.581909 1733.033081,1738.790649 1732.787109,2037.273926 
	C1731.693970,2041.365601 1730.847046,2045.182739 1730.000000,2049.000000 
	C1713.302368,2049.000000 1696.604858,2049.000000 1679.513672,2048.534424 
	C1679.075806,1748.375488 1679.031372,1448.682007 1679.287476,1148.831909 
	C1681.532837,1144.364136 1681.276733,1143.868042 1676.574951,1143.626709 
	C1654.108887,1143.484131 1632.058594,1143.556519 1609.964722,1139.218994 
	C1604.655396,1138.812378 1604.015869,1140.625244 1606.844482,1147.445801 
	C1606.567261,1153.304443 1606.034668,1158.722046 1606.061890,1164.136841 
	C1606.098511,1171.397217 1606.843628,1178.657227 1606.796387,1185.914062 
	C1606.687500,1202.662842 1606.219482,1219.409058 1606.048828,1236.157837 
	C1606.008789,1240.089844 1606.804077,1244.027222 1606.815796,1247.963379 
	C1606.890625,1273.107910 1606.964233,1298.253296 1606.821045,1323.397217 
	C1606.692505,1345.982300 1606.168091,1368.564941 1606.056030,1391.149902 
	C1606.008423,1400.747437 1606.843262,1410.348999 1606.802124,1419.946655 
	C1606.635254,1458.852539 1606.274414,1497.757568 1606.008789,1536.663086 
	C1605.953979,1544.689819 1605.896362,1552.718994 1606.025879,1560.744019 
	C1606.207764,1572.003784 1606.720337,1583.259521 1606.809204,1594.519165 
	C1606.959351,1613.529297 1606.898438,1632.541260 1606.906372,1651.552368 
	C1606.910889,1662.396851 1606.857666,1673.241211 1606.860962,1684.085693 
	C1606.880615,1748.375244 1607.011963,1812.664917 1606.891113,1876.954102 
	C1606.831421,1908.714111 1606.239380,1940.472778 1606.050415,1972.233032 
	C1606.001221,1980.496216 1606.726807,1988.761475 1606.806396,1997.028564 
	C1606.973145,2014.351440 1606.947021,2031.676025 1607.000000,2049.000000 
M318.503906,884.761230 
	C318.858521,884.072571 319.213165,883.383850 319.619476,881.796875 
	C319.900330,872.325378 320.424164,862.853760 320.416229,853.382507 
	C320.393097,825.677795 320.078094,797.973389 320.036682,770.268616 
	C320.012756,754.253479 320.382599,738.238098 320.410339,722.222534 
	C320.428497,711.743103 320.013153,701.262878 320.034973,690.783508 
	C320.082733,667.887878 320.390045,644.992493 320.394501,622.097046 
	C320.398682,600.659058 320.030853,579.220947 320.042908,557.783020 
	C320.056213,534.117554 320.428528,510.452240 320.442352,486.786743 
	C320.465668,446.777344 320.343353,406.767883 320.256653,366.758484 
	C320.195068,338.338013 320.023651,309.917572 320.032471,281.497162 
	C320.037537,265.202820 320.413208,248.908661 320.433380,232.614182 
	C320.492523,184.849106 320.450806,137.083908 320.479553,89.318779 
	C320.480865,87.170044 320.458679,84.933411 321.009674,82.889275 
	C322.704010,76.603691 322.784943,76.704208 316.518036,74.492340 
	C292.214874,65.914650 274.253387,50.523052 265.010284,25.990883 
	C262.181976,18.484282 259.450409,10.989667 253.065063,5.651657 
	C252.077362,4.825962 250.106918,3.887249 249.325851,4.321788 
	C245.565887,6.413615 241.497940,8.461240 238.728958,11.580599 
	C237.580048,12.874884 239.452499,16.795725 239.841980,19.537609 
	C240.004257,20.680063 239.895889,21.863003 239.887451,23.027365 
	C239.593445,63.605980 239.239304,104.184303 239.050461,144.763397 
	C239.014328,152.524826 239.893295,160.289001 239.900574,168.052338 
	C239.970459,242.685226 240.050415,317.318390 239.921753,391.951141 
	C239.688934,526.991760 239.285294,662.032104 239.043686,797.072693 
	C239.017883,811.497986 239.707306,825.923218 239.859024,840.350586 
	C240.007080,854.430237 239.891220,868.512695 239.891220,883.652771 
	C265.543823,883.877075 291.779053,884.106445 318.503906,884.761230 
M509.999756,320.500000 
	C509.999756,504.159332 509.999878,687.818665 509.999603,871.478027 
	C509.999603,881.976562 510.000305,882.016174 520.496948,881.498535 
	C540.237244,880.525024 559.978027,879.552856 579.711243,878.449829 
	C583.316467,878.248291 586.887024,877.427429 590.895630,876.829468 
	C590.895630,874.953979 590.895752,873.319946 590.895630,871.685913 
	C590.885803,746.055603 590.863525,620.425293 590.869568,494.794952 
	C590.876160,358.175873 590.852051,221.556702 591.036560,84.937828 
	C591.051636,73.777016 588.757263,62.330734 593.951660,51.132572 
	C567.853882,37.392315 540.067566,29.232872 511.714203,20.546309 
	C511.075012,25.565168 510.072052,29.786156 510.068115,34.008080 
	C509.979126,129.171997 509.999756,224.335999 509.999756,320.500000 
M456.337677,679.500488 
	C456.326813,662.050415 456.323608,644.600403 456.303619,627.150330 
	C456.246735,577.476379 456.120209,527.802429 456.137054,478.128510 
	C456.161102,407.143372 456.301178,336.158203 456.367096,265.173065 
	C456.419891,208.316254 456.449554,151.459412 456.457581,94.602585 
	C456.459259,82.636200 456.113403,70.665642 456.351807,58.705463 
	C456.445984,53.982819 452.189178,54.179276 450.038177,52.091198 
	C449.514313,51.582638 446.591614,52.623714 445.555176,53.703869 
	C431.641510,68.203972 414.282227,75.875984 394.896271,79.567146 
	C388.074585,80.866020 381.205017,81.913239 373.981384,83.139168 
	C373.981384,85.584633 373.981354,87.722038 373.981354,89.859451 
	C373.982727,352.959869 374.002991,616.060303 373.849854,879.160645 
	C373.846802,884.396057 375.350952,885.678467 380.234161,885.574097 
	C404.026581,885.065308 427.824158,884.770264 451.621246,884.538391 
	C455.226654,884.503235 456.521240,883.396118 456.448792,879.618530 
	C456.171417,865.160217 456.146759,850.695557 456.156189,836.233398 
	C456.190033,784.323242 456.276276,732.413086 456.337677,679.500488 
M156.851715,37.336559 
	C140.412323,45.224628 123.979614,53.126709 107.526207,60.985447 
	C105.096611,62.145908 104.136208,63.297405 105.290604,66.332863 
	C106.553543,69.653709 107.184662,73.409653 107.199501,76.979675 
	C107.323395,106.799171 107.194138,136.619583 107.234451,166.439606 
	C107.281799,201.459869 107.516685,236.480042 107.502182,271.500183 
	C107.476257,334.112305 107.275879,396.724365 107.237534,459.336487 
	C107.189949,537.031433 107.237358,614.726379 107.235268,692.421326 
	C107.233803,746.793823 107.218033,801.166382 107.208946,855.538879 
	C107.207932,861.622009 107.208809,867.705200 107.208809,874.533569 
	C133.622940,876.362488 159.336029,878.142822 185.348846,879.943909 
	C185.614319,874.952087 185.977585,871.306458 185.977936,867.660767 
	C186.004517,592.208313 186.009689,316.755798 185.932770,41.303349 
	C185.931641,37.276703 184.879807,33.250351 184.186920,28.281424 
	C174.833740,31.384275 166.215225,34.243408 156.851715,37.336559 
M1813.747314,482.500275 
	C1813.747314,341.562439 1813.747314,200.624603 1813.747314,59.886360 
	C1812.237671,59.528778 1811.742920,59.275326 1811.277710,59.321152 
	C1795.429199,60.882591 1779.595947,62.615421 1763.732178,63.999371 
	C1755.484131,64.718933 1747.148682,65.440132 1738.918579,64.981560 
	C1734.146851,64.715683 1732.936279,65.369438 1732.940430,70.216927 
	C1733.059937,208.984741 1733.040405,347.752686 1733.038574,486.520599 
	C1733.038208,514.674805 1733.173340,542.830444 1732.922119,570.982544 
	C1732.833252,580.943726 1732.392700,580.940308 1742.323242,581.499817 
	C1742.655518,581.518555 1742.990845,581.526001 1743.322510,581.504639 
	C1759.073486,580.489197 1774.343384,584.241028 1789.798096,586.172852 
	C1797.004639,587.073669 1804.227173,587.845947 1813.199219,588.878723 
	C1814.403198,553.276550 1813.358887,518.373291 1813.747314,482.500275 
M1901.683228,35.059628 
	C1897.191650,35.725277 1892.699341,36.386269 1888.208618,37.057487 
	C1876.615479,38.790268 1867.845825,48.858536 1867.722900,60.595406 
	C1867.717896,61.078007 1867.884277,61.566013 1867.995605,62.045723 
	C1871.610474,77.622047 1875.393799,93.161957 1878.763550,108.791107 
	C1880.093506,114.959282 1880.502075,121.326080 1881.283447,127.248962 
	C1875.978027,128.105286 1871.643921,128.804855 1867.017700,129.551544 
	C1867.017700,131.708725 1867.017700,133.341599 1867.017700,134.974472 
	C1867.014526,221.629257 1867.010010,308.284027 1867.009033,394.938812 
	C1867.008667,425.934662 1867.079834,456.930817 1866.941284,487.926025 
	C1866.924194,491.727844 1867.777710,493.467224 1871.870728,493.303345 
	C1875.120117,493.173218 1878.397583,493.740204 1882.144775,494.035706 
	C1881.022949,500.208130 1880.102417,505.790375 1878.983398,511.332550 
	C1875.732910,527.431519 1872.109253,543.462341 1869.245117,559.628601 
	C1868.053711,566.353455 1863.227051,573.385376 1868.590088,580.178406 
	C1872.016235,584.518127 1875.531372,590.167175 1880.215210,591.834961 
	C1888.850586,594.909729 1898.320068,596.122742 1907.545044,596.924988 
	C1916.794922,597.729370 1921.347900,594.244324 1923.830933,585.217041 
	C1926.662964,574.921387 1928.817749,564.431030 1931.023804,553.973999 
	C1933.464111,542.405762 1935.787109,530.807678 1937.868896,519.170288 
	C1939.810669,508.315521 1941.606689,497.423035 1943.026367,486.489960 
	C1944.329346,476.456787 1944.991577,466.341858 1946.031250,456.272797 
	C1947.474487,442.292969 1950.076660,428.336761 1950.265991,414.344513 
	C1950.603760,389.388092 1952.555542,364.586395 1954.186401,339.718079 
	C1955.309082,322.599640 1953.628052,305.283997 1952.954468,288.066101 
	C1952.543457,277.556244 1951.511719,267.071594 1951.041870,256.562958 
	C1950.525146,245.010269 1950.558350,233.431076 1949.943237,221.885208 
	C1949.183228,207.623810 1948.269409,193.359573 1946.926636,179.143372 
	C1945.609985,165.204025 1943.856079,151.298065 1941.952148,137.424377 
	C1940.190674,124.587814 1938.434448,111.720032 1935.849976,99.034286 
	C1932.306519,81.640701 1928.276123,64.329048 1923.767456,47.162682 
	C1922.763916,43.341431 1919.193115,39.994160 1916.282104,36.923691 
	C1912.441406,32.872444 1907.151733,35.924648 1901.683228,35.059628 
M107.242691,1740.500000 
	C107.222206,1764.718628 107.169868,1788.937256 107.187584,1813.155884 
	C107.230042,1871.212158 107.308113,1929.268433 107.363373,1987.324707 
	C107.368942,1993.172852 108.207542,1993.872314 114.026054,1994.538086 
	C132.654327,1996.669434 151.261780,1998.982300 169.881119,2001.192749 
	C174.590286,2001.751831 179.313873,2002.189697 185.138580,2002.799194 
	C186.826721,1977.155029 185.780121,1952.383667 185.962021,1927.649658 
	C186.144623,1902.819458 186.002335,1877.986816 186.002396,1853.155273 
	C186.002457,1828.323730 186.002472,1803.492188 186.002472,1778.660645 
	C186.002457,1753.995728 186.002380,1729.330811 186.002365,1704.665894 
	C186.002350,1679.834351 186.002411,1655.002808 186.002411,1630.171265 
	C186.002396,1605.339722 186.002380,1580.508179 186.002365,1555.676636 
	C186.002350,1530.924683 186.002350,1506.172852 186.002350,1481.046509 
	C177.947281,1481.617188 170.833389,1482.009399 163.741425,1482.645752 
	C146.392914,1484.202271 129.062973,1485.973633 111.705193,1487.412842 
	C108.057457,1487.715210 106.953621,1488.875366 107.018066,1492.575195 
	C107.321747,1510.011719 107.414932,1527.453491 107.409912,1544.893433 
	C107.391243,1609.762207 107.304451,1674.630981 107.242691,1740.500000 
M242.945480,1920.201660 
	C239.448318,1939.040405 235.951172,1957.879272 232.452072,1976.728516 
	C234.650284,1977.070190 237.097366,1977.450439 240.305374,1977.948975 
	C239.703598,1985.339233 239.119232,1992.515747 238.493164,2000.204346 
	C246.204041,2001.366821 253.914261,2002.514648 261.619598,2003.694458 
	C272.584320,2005.373413 278.124664,2002.408203 280.687592,1991.669800 
	C285.671143,1970.789185 290.605316,1949.856323 294.337891,1928.729370 
	C297.915894,1908.477417 300.342499,1887.994629 302.533905,1867.533813 
	C304.405975,1850.054321 305.379425,1832.471558 306.442810,1814.915771 
	C306.915497,1807.112061 306.328857,1799.245728 306.760773,1791.437622 
	C307.438751,1779.180786 309.345337,1766.948486 309.337067,1754.706787 
	C309.323608,1734.770264 308.325989,1714.828491 307.480927,1694.900146 
	C306.664795,1675.653931 305.581696,1656.418091 304.494019,1637.184570 
	C303.575531,1620.941895 303.281647,1604.609741 301.281036,1588.494873 
	C298.212677,1563.778687 294.248291,1539.158081 290.026245,1514.606445 
	C287.152527,1497.895142 283.359192,1481.333008 279.635773,1464.780884 
	C277.938049,1457.233765 270.825439,1452.604980 263.720367,1453.617065 
	C257.145050,1454.553589 250.592514,1455.684204 243.995529,1456.421875 
	C240.633881,1456.797607 239.475632,1458.109619 239.622009,1461.539551 
	C239.897293,1467.990723 239.701370,1474.461914 239.701370,1481.127686 
	C236.895859,1481.587646 234.330841,1482.008179 231.607620,1482.454712 
	C231.749969,1483.754761 231.787018,1484.739624 231.972977,1485.695679 
	C235.339264,1503.000000 238.981003,1520.257202 241.917694,1537.633911 
	C242.626831,1541.829834 244.704926,1546.508789 241.652939,1550.874268 
	C235.493988,1559.683716 238.561417,1569.484619 239.166168,1578.841064 
	C239.880203,1589.888306 241.836700,1600.849365 242.945282,1611.878784 
	C243.903687,1621.414429 244.559174,1630.986084 245.121124,1640.555176 
	C246.641251,1666.440186 248.752899,1692.317871 249.278519,1718.225830 
	C249.763123,1742.112183 248.533707,1766.034912 247.973602,1789.939697 
	C247.780151,1798.196167 247.415619,1806.451416 246.965881,1814.698242 
	C246.653198,1820.431885 245.903915,1826.143555 245.659256,1831.878296 
	C245.531082,1834.882568 245.919601,1837.936279 246.340332,1840.930420 
	C247.087967,1846.250732 253.923859,1850.480713 249.180893,1856.817749 
	C249.036804,1857.010132 249.263718,1857.455933 249.263428,1857.783569 
	C249.257233,1864.836426 249.893005,1871.964111 249.092438,1878.926392 
	C247.537415,1892.449585 245.174942,1905.880005 242.945480,1920.201660 
M667.522034,449.429382 
	C667.190125,443.463074 666.794128,437.499542 666.538696,431.529968 
	C665.835510,415.099976 665.025024,398.672119 664.567505,382.234741 
	C664.044373,363.444824 663.809082,344.646271 663.542969,325.850098 
	C663.420349,317.188354 663.619568,308.521606 663.455444,299.861237 
	C663.412842,297.613068 662.843994,295.264679 662.010925,293.162811 
	C659.749939,287.457916 657.126221,281.897705 654.816833,276.210876 
	C652.103210,269.528748 652.178955,269.491211 645.515442,271.825073 
	C645.069336,271.981354 644.689880,272.328156 644.187805,272.643982 
	C644.187805,472.604340 644.187805,672.568665 644.187805,872.956299 
	C646.118042,873.136230 647.915100,873.558105 649.670654,873.426453 
	C661.744873,872.520813 673.809631,871.491089 685.878906,870.518921 
	C691.591064,870.058716 696.191833,864.219482 695.749329,858.600769 
	C694.550659,843.382324 693.611633,828.143555 692.511169,812.917114 
	C691.817505,803.319092 691.057739,793.725464 690.257812,784.135681 
	C689.044434,769.590454 687.708496,755.055298 686.543213,740.506348 
	C685.721741,730.250916 685.185547,719.972656 684.363464,709.717224 
	C683.157410,694.672424 681.700684,679.647278 680.558105,664.597961 
	C679.691040,653.179199 679.244263,641.729004 678.438904,630.304932 
	C676.863892,607.963806 675.080872,585.637207 673.552856,563.293030 
	C672.409241,546.569580 671.438538,529.832825 670.556763,513.093323 
	C669.456177,492.199799 668.525818,471.297302 667.522034,449.429382 
M54.004547,1930.500000 
	C54.004547,1795.052124 54.004547,1659.604248 54.004547,1523.504517 
	C50.957897,1523.157959 48.131348,1522.836304 45.122051,1522.493896 
	C44.509079,1526.952515 43.898270,1530.707642 43.490837,1534.484741 
	C42.138859,1547.018555 40.659199,1559.543579 39.605320,1572.103516 
	C38.356621,1586.985352 37.367859,1601.892822 36.517220,1616.803345 
	C35.930408,1627.089355 35.987034,1637.412842 35.370819,1647.696411 
	C34.219406,1666.911499 31.933956,1686.098267 31.669981,1705.317993 
	C31.258587,1735.270874 32.039505,1765.243286 32.541283,1795.203613 
	C32.674435,1803.153809 33.818302,1811.082153 34.170483,1819.035034 
	C34.707031,1831.151367 35.173271,1843.278809 35.262695,1855.404541 
	C35.334961,1865.204224 34.201508,1875.037842 34.680233,1884.803711 
	C35.500324,1901.533569 37.270218,1918.214722 38.440018,1934.930420 
	C39.586994,1951.320068 40.429852,1967.730713 41.517498,1984.124878 
	C41.909847,1990.038696 48.724895,1995.019043 54.004189,1993.388306 
	C54.004189,1972.779541 54.004189,1952.139771 54.004547,1930.500000 
M23.489695,813.836243 
	C22.322104,826.891724 21.327417,839.966003 19.908743,852.994202 
	C19.268478,858.873901 21.933393,865.726929 27.564411,866.884399 
	C36.054729,868.629639 44.822670,869.024292 53.782387,870.027710 
	C53.782387,755.754761 53.782387,642.865173 53.782387,529.469727 
	C50.826584,529.142456 48.104469,528.841003 45.060238,528.503906 
	C44.507263,536.469177 43.920189,543.890381 43.495739,551.320862 
	C43.040955,559.282349 42.867290,567.261108 42.344986,575.217407 
	C41.127468,593.764099 39.778091,612.302063 38.474682,630.843079 
	C37.753010,641.108948 37.057995,651.376892 36.276913,661.638245 
	C35.042747,677.851929 33.732185,694.059692 32.481548,710.272156 
	C31.728380,720.035706 31.094044,729.808838 30.287527,739.567871 
	C29.071430,754.282898 27.795597,768.993347 26.460081,783.697998 
	C25.574862,793.444824 24.540905,803.178101 23.489695,813.836243 
z"/>
<path fill="#F2F0F1" opacity="1.000000" stroke="none" 
	d="
M1464.076538,1115.082031 
	C1485.374512,1110.390747 1506.673828,1105.705811 1527.969116,1101.002441 
	C1532.196289,1100.068848 1536.420166,1099.115112 1540.624023,1098.082397 
	C1550.726440,1095.601074 1554.562134,1097.255005 1560.100342,1106.585571 
	C1559.971680,1106.884644 1559.888184,1107.407471 1559.701538,1107.447388 
	C1552.835327,1108.913818 1552.905884,1113.847412 1552.907837,1119.517578 
	C1553.012207,1416.901611 1553.011230,1714.285522 1552.959595,2011.669556 
	C1552.957397,2023.818970 1552.362061,2035.968506 1552.021484,2048.559082 
	C1521.979126,2049.000000 1491.958130,2049.000000 1461.429321,2048.560059 
	C1461.614624,2042.866455 1462.913086,2037.613403 1462.914673,2032.359741 
	C1463.007690,1729.573120 1462.993042,1426.786499 1463.219727,1123.677490 
	C1463.659180,1120.597290 1463.867798,1117.839722 1464.076538,1115.082031 
z"/>
<path fill="#F1EFF0" opacity="1.000000" stroke="none" 
	d="
M1866.468750,2049.000000 
	C1866.336060,2046.432861 1866.965210,2043.865723 1866.965942,2041.298462 
	C1867.014282,1875.004150 1867.011841,1708.709961 1867.013672,1542.415649 
	C1867.015259,1401.449463 1867.012817,1260.483276 1867.041138,1119.517090 
	C1867.041870,1115.865967 1867.381348,1112.214966 1867.596924,1107.878052 
	C1869.336426,1107.878052 1870.937988,1107.636108 1872.443726,1107.914062 
	C1897.674194,1112.573242 1922.658691,1118.192017 1946.864990,1126.899658 
	C1949.786377,1127.950562 1950.811279,1128.925537 1950.577148,1132.499390 
	C1949.843384,1143.702515 1949.716797,1154.958008 1949.706421,1166.193604 
	C1949.647705,1229.436279 1949.734741,1292.679077 1949.686035,1355.921753 
	C1949.654053,1397.395264 1949.358887,1438.869019 1949.391968,1480.342407 
	C1949.442993,1544.429321 1949.787598,1608.516113 1949.792969,1672.603027 
	C1949.797241,1723.256958 1949.363403,1773.910767 1949.335327,1824.564819 
	C1949.307495,1874.853149 1949.548828,1925.141724 1949.662109,1975.430176 
	C1949.716675,1999.647461 1949.748413,2023.864746 1949.895264,2048.541016 
	C1922.312378,2049.000000 1894.624878,2049.000000 1866.468750,2049.000000 
z"/>
<path fill="#F1EFF0" opacity="1.000000" stroke="none" 
	d="
M1733.033203,2036.999512 
	C1733.033081,1738.790649 1733.033081,1440.581909 1733.033081,1142.045532 
	C1740.248657,1140.825317 1747.115967,1139.710205 1753.966064,1138.496948 
	C1774.990479,1134.773071 1790.140015,1122.810425 1801.306885,1105.036499 
	C1803.193848,1102.033203 1806.107910,1099.613892 1808.805542,1097.214966 
	C1809.728394,1096.394287 1811.544434,1096.024414 1812.750732,1096.307373 
	C1813.361572,1096.450928 1813.840820,1098.506836 1813.841797,1099.698486 
	C1813.870239,1132.790039 1813.821289,1165.881714 1813.802612,1198.973267 
	C1813.777222,1244.002686 1813.801880,1289.032104 1813.739624,1334.061523 
	C1813.674561,1381.183472 1813.437134,1428.305298 1813.446411,1475.427246 
	C1813.458496,1537.227295 1813.663818,1599.027222 1813.738403,1660.827271 
	C1813.802490,1714.024414 1813.814941,1767.221436 1813.823242,1820.418579 
	C1813.834961,1896.304688 1813.822021,1972.190796 1813.909912,2048.538574 
	C1788.312378,2049.000000 1762.624878,2049.000000 1736.229492,2048.639160 
	C1734.692261,2044.518921 1733.862671,2040.759155 1733.033203,2036.999512 
z"/>
<path fill="#F2F0F1" opacity="1.000000" stroke="none" 
	d="
M1607.468628,2049.000000 
	C1606.947021,2031.676025 1606.973145,2014.351440 1606.806396,1997.028564 
	C1606.726807,1988.761475 1606.001221,1980.496216 1606.050415,1972.233032 
	C1606.239380,1940.472778 1606.831421,1908.714111 1606.891113,1876.954102 
	C1607.011963,1812.664917 1606.880615,1748.375244 1606.860962,1684.085693 
	C1606.857666,1673.241211 1606.910889,1662.396851 1606.906372,1651.552368 
	C1606.898438,1632.541260 1606.959351,1613.529297 1606.809204,1594.519165 
	C1606.720337,1583.259521 1606.207764,1572.003784 1606.025879,1560.744019 
	C1605.896362,1552.718994 1605.953979,1544.689819 1606.008789,1536.663086 
	C1606.274414,1497.757568 1606.635254,1458.852539 1606.802124,1419.946655 
	C1606.843262,1410.348999 1606.008423,1400.747437 1606.056030,1391.149902 
	C1606.168091,1368.564941 1606.692505,1345.982300 1606.821045,1323.397217 
	C1606.964233,1298.253296 1606.890625,1273.107910 1606.815796,1247.963379 
	C1606.804077,1244.027222 1606.008789,1240.089844 1606.048828,1236.157837 
	C1606.219482,1219.409058 1606.687500,1202.662842 1606.796387,1185.914062 
	C1606.843628,1178.657227 1606.098511,1171.397217 1606.061890,1164.136841 
	C1606.034668,1158.722046 1606.567261,1153.304443 1607.130127,1147.242798 
	C1608.364502,1144.204956 1609.319580,1141.812256 1610.274536,1139.419678 
	C1632.058594,1143.556519 1654.108887,1143.484131 1676.751709,1143.944092 
	C1677.899048,1145.864014 1678.442993,1147.426270 1678.986938,1148.988647 
	C1679.031372,1448.682007 1679.075806,1748.375488 1679.060059,2048.534424 
	C1655.312378,2049.000000 1631.624878,2049.000000 1607.468628,2049.000000 
z"/>
<path fill="#F0EEEF" opacity="1.000000" stroke="none" 
	d="
M1326.619019,2033.772827 
	C1326.616821,2031.860840 1326.614502,2029.948730 1326.806152,2027.177002 
	C1327.013672,2025.490356 1327.042358,2024.663086 1327.038696,2023.836182 
	C1326.998047,2014.582153 1326.996704,2014.582153 1318.460693,2011.709351 
	C1319.773071,1994.168579 1321.108032,1976.629517 1322.390747,1959.086670 
	C1323.456055,1944.519409 1324.351685,1929.939087 1325.522461,1915.380493 
	C1326.639404,1901.490479 1328.058105,1887.625000 1329.261475,1873.741455 
	C1330.078491,1864.317261 1330.739868,1854.879883 1331.493286,1845.450073 
	C1332.775269,1829.407471 1334.122314,1813.369873 1335.350098,1797.323120 
	C1336.148071,1786.895874 1336.707153,1776.450195 1337.508667,1766.023193 
	C1338.691406,1750.638428 1340.016113,1735.264404 1341.238647,1719.882568 
	C1342.027588,1709.955933 1342.712036,1700.020752 1343.497314,1690.093750 
	C1344.753540,1674.215576 1346.079590,1658.342773 1347.327637,1642.463867 
	C1348.094849,1632.701294 1348.733765,1622.928589 1349.499146,1613.165894 
	C1350.744019,1597.286621 1352.057861,1581.412720 1353.317993,1565.534668 
	C1354.066406,1556.104126 1354.730347,1546.666748 1355.499146,1537.237915 
	C1356.739380,1522.024780 1358.086914,1506.820068 1359.288086,1491.603882 
	C1360.111084,1481.179443 1360.786133,1470.742798 1361.484009,1460.308716 
	C1362.170776,1450.041016 1362.697021,1439.760986 1363.533203,1429.505859 
	C1363.744263,1426.917847 1364.626465,1424.306030 1365.612305,1421.872070 
	C1374.477173,1399.984375 1380.149658,1377.179199 1383.195190,1353.893799 
	C1385.644775,1335.165405 1385.692749,1316.135376 1387.627319,1297.323486 
	C1389.250244,1281.541870 1386.184204,1266.224609 1384.418457,1250.801025 
	C1382.361206,1232.828979 1380.033569,1214.811523 1376.313965,1197.131348 
	C1373.558960,1184.036255 1368.714233,1171.332153 1364.139893,1158.692871 
	C1362.328979,1153.689209 1363.087280,1150.056519 1367.113525,1147.499023 
	C1371.545166,1144.684082 1376.357910,1142.304688 1381.275635,1140.456421 
	C1389.474609,1137.374512 1397.889404,1134.866577 1406.949219,1132.244873 
	C1408.123779,1139.278076 1408.944702,1146.182983 1408.946289,1153.088257 
	C1409.010254,1446.293701 1408.995850,1739.499268 1409.042725,2032.704712 
	C1409.043579,2038.136475 1409.666992,2043.568237 1410.000000,2049.000000 
	C1383.979126,2049.000000 1357.958130,2049.000000 1331.468750,2049.000000 
	C1330.115601,2047.884399 1329.231201,2046.768921 1328.072021,2044.970215 
	C1327.404541,2040.782227 1327.011719,2037.277466 1326.619019,2033.772827 
z"/>
<path fill="#040500" opacity="1.000000" stroke="none" 
	d="
M1410.468506,2049.000000 
	C1409.666992,2043.568237 1409.043579,2038.136475 1409.042725,2032.704712 
	C1408.995850,1739.499268 1409.010254,1446.293701 1408.946289,1153.088257 
	C1408.944702,1146.182983 1408.123779,1139.278076 1407.342773,1132.152832 
	C1407.329102,1131.389893 1407.554810,1130.483154 1408.001465,1130.356689 
	C1423.594482,1125.939941 1439.203125,1121.578003 1454.828735,1117.278076 
	C1456.077515,1116.934570 1457.463745,1117.091187 1459.346680,1117.325317 
	C1460.934448,1119.756836 1461.961792,1121.878418 1462.989014,1123.999878 
	C1462.993042,1426.786499 1463.007690,1729.573120 1462.914673,2032.359741 
	C1462.913086,2037.613403 1461.614624,2042.866455 1460.960693,2048.560059 
	C1444.312378,2049.000000 1427.624878,2049.000000 1410.468506,2049.000000 
z"/>
<path fill="#ECEAEB" opacity="1.000000" stroke="none" 
	d="
M2012.649658,1614.250366 
	C2013.261719,1619.674561 2014.060303,1625.085205 2014.450439,1630.525391 
	C2015.566040,1646.080322 2016.407227,1661.655273 2017.561279,1677.207031 
	C2018.714844,1692.750732 2020.185303,1708.270752 2021.385254,1723.811279 
	C2022.215576,1734.563477 2022.733887,1745.339478 2023.549927,1756.092896 
	C2024.754639,1771.966309 2026.137085,1787.826172 2027.372559,1803.697266 
	C2028.157959,1813.786377 2028.768433,1823.889160 2029.539795,1833.979370 
	C2030.778442,1850.183472 2032.111450,1866.380493 2033.353760,1882.584229 
	C2034.127319,1892.674194 2034.741089,1902.776367 2035.544556,1912.863770 
	C2036.755981,1928.070923 2038.752686,1943.255493 2039.067871,1958.477661 
	C2039.237915,1966.692749 2042.772461,1973.038330 2046.079590,1979.804810 
	C2046.619629,1980.909668 2047.676147,1981.762085 2048.747070,1982.365479 
	C2049.000000,1999.354248 2049.000000,2016.708496 2048.715820,2034.254639 
	C2046.029785,2036.893677 2043.569946,2039.286743 2041.243286,2041.803101 
	C2039.088257,2044.133667 2037.075439,2046.595825 2035.000000,2049.000000 
	C2024.312378,2049.000000 2013.624878,2049.000000 2002.468628,2049.000000 
	C2002.464600,2044.629883 2003.279297,2040.263794 2003.329346,2035.888916 
	C2003.488892,2021.934204 2003.350586,2007.976196 2003.352417,1994.019531 
	C2003.358521,1949.068848 2003.379395,1904.118286 2003.387329,1859.167603 
	C2003.396973,1804.701904 2003.406616,1750.236206 2003.401001,1695.770508 
	C2003.398193,1669.221313 2003.361206,1642.672241 2003.711914,1615.700684 
	C2006.939331,1614.935669 2009.794434,1614.593018 2012.649658,1614.250366 
z"/>
<path fill="#040500" opacity="1.000000" stroke="none" 
	d="
M2035.474121,2049.000000 
	C2037.075439,2046.595825 2039.088257,2044.133667 2041.243286,2041.803101 
	C2043.569946,2039.286743 2046.029785,2036.893677 2048.715820,2034.723389 
	C2049.000000,2039.590576 2049.000000,2044.181152 2049.000000,2049.000000 
	C2044.651123,2049.000000 2040.299683,2049.000000 2035.474121,2049.000000 
z"/>
<path fill="#747273" opacity="1.000000" stroke="none" 
	d="
M1732.787109,2037.273926 
	C1733.862671,2040.759155 1734.692261,2044.518921 1735.760986,2048.639160 
	C1734.285645,2049.000000 1732.571289,2049.000000 1730.428467,2049.000000 
	C1730.847046,2045.182739 1731.693970,2041.365601 1732.787109,2037.273926 
z"/>
<path fill="#F2F0F1" opacity="1.000000" stroke="none" 
	d="
M509.999756,320.000000 
	C509.999756,224.335999 509.979126,129.171997 510.068115,34.008080 
	C510.072052,29.786156 511.075012,25.565168 511.714203,20.546309 
	C540.067566,29.232872 567.853882,37.392315 593.951660,51.132572 
	C588.757263,62.330734 591.051636,73.777016 591.036560,84.937828 
	C590.852051,221.556702 590.876160,358.175873 590.869568,494.794952 
	C590.863525,620.425293 590.885803,746.055603 590.895630,871.685913 
	C590.895752,873.319946 590.895630,874.953979 590.895630,876.829468 
	C586.887024,877.427429 583.316467,878.248291 579.711243,878.449829 
	C559.978027,879.552856 540.237244,880.525024 520.496948,881.498535 
	C510.000305,882.016174 509.999603,881.976562 509.999603,871.478027 
	C509.999878,687.818665 509.999756,504.159332 509.999756,320.000000 
z"/>
<path fill="#F2F0F1" opacity="1.000000" stroke="none" 
	d="
M318.014282,884.335876 
	C291.779053,884.106445 265.543823,883.877075 239.891220,883.652771 
	C239.891220,868.512695 240.007080,854.430237 239.859024,840.350586 
	C239.707306,825.923218 239.017883,811.497986 239.043686,797.072693 
	C239.285294,662.032104 239.688934,526.991760 239.921753,391.951141 
	C240.050415,317.318390 239.970459,242.685226 239.900574,168.052338 
	C239.893295,160.289001 239.014328,152.524826 239.050461,144.763397 
	C239.239304,104.184303 239.593445,63.605980 239.887451,23.027365 
	C239.895889,21.863003 240.004257,20.680063 239.841980,19.537609 
	C239.452499,16.795725 237.580048,12.874884 238.728958,11.580599 
	C241.497940,8.461240 245.565887,6.413615 249.325851,4.321788 
	C250.106918,3.887249 252.077362,4.825962 253.065063,5.651657 
	C259.450409,10.989667 262.181976,18.484282 265.010284,25.990883 
	C274.253387,50.523052 292.214874,65.914650 316.518036,74.492340 
	C322.784943,76.704208 322.704010,76.603691 321.009674,82.889275 
	C320.458679,84.933411 320.480865,87.170044 320.479553,89.318779 
	C320.450806,137.083908 320.492523,184.849106 320.433380,232.614182 
	C320.413208,248.908661 320.037537,265.202820 320.032471,281.497162 
	C320.023651,309.917572 320.195068,338.338013 320.256653,366.758484 
	C320.343353,406.767883 320.465668,446.777344 320.442352,486.786743 
	C320.428528,510.452240 320.056213,534.117554 320.042908,557.783020 
	C320.030853,579.220947 320.398682,600.659058 320.394501,622.097046 
	C320.390045,644.992493 320.082733,667.887878 320.034973,690.783508 
	C320.013153,701.262878 320.428497,711.743103 320.410339,722.222534 
	C320.382599,738.238098 320.012756,754.253479 320.036682,770.268616 
	C320.078094,797.973389 320.393097,825.677795 320.416229,853.382507 
	C320.424164,862.853760 319.900330,872.325378 319.288574,882.291016 
	C318.643188,883.302124 318.328735,883.818970 318.014282,884.335876 
z"/>
<path fill="#F2F0F1" opacity="1.000000" stroke="none" 
	d="
M456.340210,680.001709 
	C456.276276,732.413086 456.190033,784.323242 456.156189,836.233398 
	C456.146759,850.695557 456.171417,865.160217 456.448792,879.618530 
	C456.521240,883.396118 455.226654,884.503235 451.621246,884.538391 
	C427.824158,884.770264 404.026581,885.065308 380.234161,885.574097 
	C375.350952,885.678467 373.846802,884.396057 373.849854,879.160645 
	C374.002991,616.060303 373.982727,352.959869 373.981354,89.859451 
	C373.981354,87.722038 373.981384,85.584633 373.981384,83.139168 
	C381.205017,81.913239 388.074585,80.866020 394.896271,79.567146 
	C414.282227,75.875984 431.641510,68.203972 445.555176,53.703869 
	C446.591614,52.623714 449.514313,51.582638 450.038177,52.091198 
	C452.189178,54.179276 456.445984,53.982819 456.351807,58.705463 
	C456.113403,70.665642 456.459259,82.636200 456.457581,94.602585 
	C456.449554,151.459412 456.419891,208.316254 456.367096,265.173065 
	C456.301178,336.158203 456.161102,407.143372 456.137054,478.128510 
	C456.120209,527.802429 456.246735,577.476379 456.303619,627.150330 
	C456.323608,644.600403 456.326813,662.050415 456.340210,680.001709 
z"/>
<path fill="#F1EFF0" opacity="1.000000" stroke="none" 
	d="
M157.224213,37.219551 
	C166.215225,34.243408 174.833740,31.384275 184.186920,28.281424 
	C184.879807,33.250351 185.931641,37.276703 185.932770,41.303349 
	C186.009689,316.755798 186.004517,592.208313 185.977936,867.660767 
	C185.977585,871.306458 185.614319,874.952087 185.348846,879.943909 
	C159.336029,878.142822 133.622940,876.362488 107.208809,874.533569 
	C107.208809,867.705200 107.207932,861.622009 107.208946,855.538879 
	C107.218033,801.166382 107.233803,746.793823 107.235268,692.421326 
	C107.237358,614.726379 107.189949,537.031433 107.237534,459.336487 
	C107.275879,396.724365 107.476257,334.112305 107.502182,271.500183 
	C107.516685,236.480042 107.281799,201.459869 107.234451,166.439606 
	C107.194138,136.619583 107.323395,106.799171 107.199501,76.979675 
	C107.184662,73.409653 106.553543,69.653709 105.290604,66.332863 
	C104.136208,63.297405 105.096611,62.145908 107.526207,60.985447 
	C123.979614,53.126709 140.412323,45.224628 157.224213,37.219551 
z"/>
<path fill="#F1EFF0" opacity="1.000000" stroke="none" 
	d="
M1813.746094,483.000488 
	C1813.358887,518.373291 1814.403198,553.276550 1813.199219,588.878723 
	C1804.227173,587.845947 1797.004639,587.073669 1789.798096,586.172852 
	C1774.343384,584.241028 1759.073486,580.489197 1743.322510,581.504639 
	C1742.990845,581.526001 1742.655518,581.518555 1742.323242,581.499817 
	C1732.392700,580.940308 1732.833252,580.943726 1732.922119,570.982544 
	C1733.173340,542.830444 1733.038208,514.674805 1733.038574,486.520599 
	C1733.040405,347.752686 1733.059937,208.984741 1732.940430,70.216927 
	C1732.936279,65.369438 1734.146851,64.715683 1738.918579,64.981560 
	C1747.148682,65.440132 1755.484131,64.718933 1763.732178,63.999371 
	C1779.595947,62.615421 1795.429199,60.882591 1811.277710,59.321152 
	C1811.742920,59.275326 1812.237671,59.528778 1813.747314,59.886360 
	C1813.747314,200.624603 1813.747314,341.562439 1813.746094,483.000488 
z"/>
<path fill="#F2F0F1" opacity="1.000000" stroke="none" 
	d="
M1902.155029,34.988655 
	C1907.151733,35.924648 1912.441406,32.872444 1916.282104,36.923691 
	C1919.193115,39.994160 1922.763916,43.341431 1923.767456,47.162682 
	C1928.276123,64.329048 1932.306519,81.640701 1935.849976,99.034286 
	C1938.434448,111.720032 1940.190674,124.587814 1941.952148,137.424377 
	C1943.856079,151.298065 1945.609985,165.204025 1946.926636,179.143372 
	C1948.269409,193.359573 1949.183228,207.623810 1949.943237,221.885208 
	C1950.558350,233.431076 1950.525146,245.010269 1951.041870,256.562958 
	C1951.511719,267.071594 1952.543457,277.556244 1952.954468,288.066101 
	C1953.628052,305.283997 1955.309082,322.599640 1954.186401,339.718079 
	C1952.555542,364.586395 1950.603760,389.388092 1950.265991,414.344513 
	C1950.076660,428.336761 1947.474487,442.292969 1946.031250,456.272797 
	C1944.991577,466.341858 1944.329346,476.456787 1943.026367,486.489960 
	C1941.606689,497.423035 1939.810669,508.315521 1937.868896,519.170288 
	C1935.787109,530.807678 1933.464111,542.405762 1931.023804,553.973999 
	C1928.817749,564.431030 1926.662964,574.921387 1923.830933,585.217041 
	C1921.347900,594.244324 1916.794922,597.729370 1907.545044,596.924988 
	C1898.320068,596.122742 1888.850586,594.909729 1880.215210,591.834961 
	C1875.531372,590.167175 1872.016235,584.518127 1868.590088,580.178406 
	C1863.227051,573.385376 1868.053711,566.353455 1869.245117,559.628601 
	C1872.109253,543.462341 1875.732910,527.431519 1878.983398,511.332550 
	C1880.102417,505.790375 1881.022949,500.208130 1882.144775,494.035706 
	C1878.397583,493.740204 1875.120117,493.173218 1871.870728,493.303345 
	C1867.777710,493.467224 1866.924194,491.727844 1866.941284,487.926025 
	C1867.079834,456.930817 1867.008667,425.934662 1867.009033,394.938812 
	C1867.010010,308.284027 1867.014526,221.629257 1867.017700,134.974472 
	C1867.017700,133.341599 1867.017700,131.708725 1867.017700,129.551544 
	C1871.643921,128.804855 1875.978027,128.105286 1881.283447,127.248962 
	C1880.502075,121.326080 1880.093506,114.959282 1878.763550,108.791107 
	C1875.393799,93.161957 1871.610474,77.622047 1867.995605,62.045723 
	C1867.884277,61.566013 1867.717896,61.078007 1867.722900,60.595406 
	C1867.845825,48.858536 1876.615479,38.790268 1888.208618,37.057487 
	C1892.699341,36.386269 1897.191650,35.725277 1902.155029,34.988655 
z"/>
<path fill="#F1EFF0" opacity="1.000000" stroke="none" 
	d="
M107.242958,1739.999878 
	C107.304451,1674.630981 107.391243,1609.762207 107.409912,1544.893433 
	C107.414932,1527.453491 107.321747,1510.011719 107.018066,1492.575195 
	C106.953621,1488.875366 108.057457,1487.715210 111.705193,1487.412842 
	C129.062973,1485.973633 146.392914,1484.202271 163.741425,1482.645752 
	C170.833389,1482.009399 177.947281,1481.617188 186.002350,1481.046509 
	C186.002350,1506.172852 186.002350,1530.924683 186.002365,1555.676636 
	C186.002380,1580.508179 186.002396,1605.339722 186.002411,1630.171265 
	C186.002411,1655.002808 186.002350,1679.834351 186.002365,1704.665894 
	C186.002380,1729.330811 186.002457,1753.995728 186.002472,1778.660645 
	C186.002472,1803.492188 186.002457,1828.323730 186.002396,1853.155273 
	C186.002335,1877.986816 186.144623,1902.819458 185.962021,1927.649658 
	C185.780121,1952.383667 186.826721,1977.155029 185.138580,2002.799194 
	C179.313873,2002.189697 174.590286,2001.751831 169.881119,2001.192749 
	C151.261780,1998.982300 132.654327,1996.669434 114.026054,1994.538086 
	C108.207542,1993.872314 107.368942,1993.172852 107.363373,1987.324707 
	C107.308113,1929.268433 107.230042,1871.212158 107.187584,1813.155884 
	C107.169868,1788.937256 107.222206,1764.718628 107.242958,1739.999878 
z"/>
<path fill="#F0EEEF" opacity="1.000000" stroke="none" 
	d="
M243.046234,1919.775269 
	C245.174942,1905.880005 247.537415,1892.449585 249.092438,1878.926392 
	C249.893005,1871.964111 249.257233,1864.836426 249.263428,1857.783569 
	C249.263718,1857.455933 249.036804,1857.010132 249.180893,1856.817749 
	C253.923859,1850.480713 247.087967,1846.250732 246.340332,1840.930420 
	C245.919601,1837.936279 245.531082,1834.882568 245.659256,1831.878296 
	C245.903915,1826.143555 246.653198,1820.431885 246.965881,1814.698242 
	C247.415619,1806.451416 247.780151,1798.196167 247.973602,1789.939697 
	C248.533707,1766.034912 249.763123,1742.112183 249.278519,1718.225830 
	C248.752899,1692.317871 246.641251,1666.440186 245.121124,1640.555176 
	C244.559174,1630.986084 243.903687,1621.414429 242.945282,1611.878784 
	C241.836700,1600.849365 239.880203,1589.888306 239.166168,1578.841064 
	C238.561417,1569.484619 235.493988,1559.683716 241.652939,1550.874268 
	C244.704926,1546.508789 242.626831,1541.829834 241.917694,1537.633911 
	C238.981003,1520.257202 235.339264,1503.000000 231.972977,1485.695679 
	C231.787018,1484.739624 231.749969,1483.754761 231.607620,1482.454712 
	C234.330841,1482.008179 236.895859,1481.587646 239.701370,1481.127686 
	C239.701370,1474.461914 239.897293,1467.990723 239.622009,1461.539551 
	C239.475632,1458.109619 240.633881,1456.797607 243.995529,1456.421875 
	C250.592514,1455.684204 257.145050,1454.553589 263.720367,1453.617065 
	C270.825439,1452.604980 277.938049,1457.233765 279.635773,1464.780884 
	C283.359192,1481.333008 287.152527,1497.895142 290.026245,1514.606445 
	C294.248291,1539.158081 298.212677,1563.778687 301.281036,1588.494873 
	C303.281647,1604.609741 303.575531,1620.941895 304.494019,1637.184570 
	C305.581696,1656.418091 306.664795,1675.653931 307.480927,1694.900146 
	C308.325989,1714.828491 309.323608,1734.770264 309.337067,1754.706787 
	C309.345337,1766.948486 307.438751,1779.180786 306.760773,1791.437622 
	C306.328857,1799.245728 306.915497,1807.112061 306.442810,1814.915771 
	C305.379425,1832.471558 304.405975,1850.054321 302.533905,1867.533813 
	C300.342499,1887.994629 297.915894,1908.477417 294.337891,1928.729370 
	C290.605316,1949.856323 285.671143,1970.789185 280.687592,1991.669800 
	C278.124664,2002.408203 272.584320,2005.373413 261.619598,2003.694458 
	C253.914261,2002.514648 246.204041,2001.366821 238.493164,2000.204346 
	C239.119232,1992.515747 239.703598,1985.339233 240.305374,1977.948975 
	C237.097366,1977.450439 234.650284,1977.070190 232.452072,1976.728516 
	C235.951172,1957.879272 239.448318,1939.040405 243.046234,1919.775269 
z"/>
<path fill="#EDEBEC" opacity="1.000000" stroke="none" 
	d="
M667.522034,449.914032 
	C668.525818,471.297302 669.456177,492.199799 670.556763,513.093323 
	C671.438538,529.832825 672.409241,546.569580 673.552856,563.293030 
	C675.080872,585.637207 676.863892,607.963806 678.438904,630.304932 
	C679.244263,641.729004 679.691040,653.179199 680.558105,664.597961 
	C681.700684,679.647278 683.157410,694.672424 684.363464,709.717224 
	C685.185547,719.972656 685.721741,730.250916 686.543213,740.506348 
	C687.708496,755.055298 689.044434,769.590454 690.257812,784.135681 
	C691.057739,793.725464 691.817505,803.319092 692.511169,812.917114 
	C693.611633,828.143555 694.550659,843.382324 695.749329,858.600769 
	C696.191833,864.219482 691.591064,870.058716 685.878906,870.518921 
	C673.809631,871.491089 661.744873,872.520813 649.670654,873.426453 
	C647.915100,873.558105 646.118042,873.136230 644.187805,872.956299 
	C644.187805,672.568665 644.187805,472.604340 644.187805,272.643982 
	C644.689880,272.328156 645.069336,271.981354 645.515442,271.825073 
	C652.178955,269.491211 652.103210,269.528748 654.816833,276.210876 
	C657.126221,281.897705 659.749939,287.457916 662.010925,293.162811 
	C662.843994,295.264679 663.412842,297.613068 663.455444,299.861237 
	C663.619568,308.521606 663.420349,317.188354 663.542969,325.850098 
	C663.809082,344.646271 664.044373,363.444824 664.567505,382.234741 
	C665.025024,398.672119 665.835510,415.099976 666.538696,431.529968 
	C666.794128,437.499542 667.190125,443.463074 667.522034,449.914032 
z"/>
<path fill="#ECEAEB" opacity="1.000000" stroke="none" 
	d="
M54.004368,1931.000000 
	C54.004189,1952.139771 54.004189,1972.779541 54.004189,1993.388306 
	C48.724895,1995.019043 41.909847,1990.038696 41.517498,1984.124878 
	C40.429852,1967.730713 39.586994,1951.320068 38.440018,1934.930420 
	C37.270218,1918.214722 35.500324,1901.533569 34.680233,1884.803711 
	C34.201508,1875.037842 35.334961,1865.204224 35.262695,1855.404541 
	C35.173271,1843.278809 34.707031,1831.151367 34.170483,1819.035034 
	C33.818302,1811.082153 32.674435,1803.153809 32.541283,1795.203613 
	C32.039505,1765.243286 31.258587,1735.270874 31.669981,1705.317993 
	C31.933956,1686.098267 34.219406,1666.911499 35.370819,1647.696411 
	C35.987034,1637.412842 35.930408,1627.089355 36.517220,1616.803345 
	C37.367859,1601.892822 38.356621,1586.985352 39.605320,1572.103516 
	C40.659199,1559.543579 42.138859,1547.018555 43.490837,1534.484741 
	C43.898270,1530.707642 44.509079,1526.952515 45.122051,1522.493896 
	C48.131348,1522.836304 50.957897,1523.157959 54.004547,1523.504517 
	C54.004547,1659.604248 54.004547,1795.052124 54.004368,1931.000000 
z"/>
<path fill="#EDEBEC" opacity="1.000000" stroke="none" 
	d="
M23.531612,813.376831 
	C24.540905,803.178101 25.574862,793.444824 26.460081,783.697998 
	C27.795597,768.993347 29.071430,754.282898 30.287527,739.567871 
	C31.094044,729.808838 31.728380,720.035706 32.481548,710.272156 
	C33.732185,694.059692 35.042747,677.851929 36.276913,661.638245 
	C37.057995,651.376892 37.753010,641.108948 38.474682,630.843079 
	C39.778091,612.302063 41.127468,593.764099 42.344986,575.217407 
	C42.867290,567.261108 43.040955,559.282349 43.495739,551.320862 
	C43.920189,543.890381 44.507263,536.469177 45.060238,528.503906 
	C48.104469,528.841003 50.826584,529.142456 53.782387,529.469727 
	C53.782387,642.865173 53.782387,755.754761 53.782387,870.027710 
	C44.822670,869.024292 36.054729,868.629639 27.564411,866.884399 
	C21.933393,865.726929 19.268478,858.873901 19.908743,852.994202 
	C21.327417,839.966003 22.322104,826.891724 23.531612,813.376831 
z"/>
<path fill="#747273" opacity="1.000000" stroke="none" 
	d="
M1318.234741,2012.088501 
	C1326.996704,2014.582153 1326.998047,2014.582153 1327.038696,2023.836182 
	C1327.042358,2024.663086 1327.013672,2025.490356 1326.827393,2026.767578 
	C1323.788330,2026.512817 1320.921997,2025.807861 1317.262207,2024.907715 
	C1317.499634,2020.952759 1317.754150,2016.710205 1318.234741,2012.088501 
z"/>
<path fill="#747273" opacity="1.000000" stroke="none" 
	d="
M2012.719727,1613.784424 
	C2009.794434,1614.593018 2006.939331,1614.935669 2003.681274,1615.246338 
	C2003.190552,1612.092896 2002.832275,1608.943848 2003.147339,1605.863770 
	C2003.273804,1604.627563 2004.659058,1602.915405 2005.850220,1602.495972 
	C2011.421387,1600.534180 2012.470825,1601.392212 2012.666260,1607.377686 
	C2012.730835,1609.357178 2012.749878,1611.338135 2012.719727,1613.784424 
z"/>
<path fill="#747273" opacity="1.000000" stroke="none" 
	d="
M1326.326172,2033.915283 
	C1327.011719,2037.277466 1327.404541,2040.782227 1327.764771,2044.746094 
	C1320.500854,2042.187988 1320.178833,2040.074951 1326.326172,2033.915283 
z"/>
<path fill="#747273" opacity="1.000000" stroke="none" 
	d="
M1609.964722,1139.218994 
	C1609.319580,1141.812256 1608.364502,1144.204956 1607.124023,1146.800537 
	C1604.015869,1140.625244 1604.655396,1138.812378 1609.964722,1139.218994 
z"/>
<path fill="#747273" opacity="1.000000" stroke="none" 
	d="
M1463.219727,1123.677490 
	C1461.961792,1121.878418 1460.934448,1119.756836 1459.812744,1117.334961 
	C1460.950684,1116.363647 1462.183228,1115.692871 1463.746094,1115.052002 
	C1463.867798,1117.839722 1463.659180,1120.597290 1463.219727,1123.677490 
z"/>
<path fill="#747273" opacity="1.000000" stroke="none" 
	d="
M1679.287476,1148.831909 
	C1678.442993,1147.426270 1677.899048,1145.864014 1677.178467,1143.984253 
	C1681.276733,1143.868042 1681.532837,1144.364136 1679.287476,1148.831909 
z"/>
<path fill="#747273" opacity="1.000000" stroke="none" 
	d="
M318.259094,884.548584 
	C318.328735,883.818970 318.643188,883.302124 319.262726,882.740234 
	C319.213165,883.383850 318.858521,884.072571 318.259094,884.548584 
z"/>
</svg>