<?xml version="1.0" encoding="UTF-8" standalone="no"?>
<!-- Created with Inkscape (http://www.inkscape.org/) -->

<svg
   version="1.1"
   id="svg2"
   width="1600"
   height="1066.6667"
   viewBox="0 0 1600 1066.6667"
   sodipodi:docname="19597409_v1043-046a.eps"
   xmlns:inkscape="http://www.inkscape.org/namespaces/inkscape"
   xmlns:sodipodi="http://sodipodi.sourceforge.net/DTD/sodipodi-0.dtd"
   xmlns="http://www.w3.org/2000/svg"
   xmlns:svg="http://www.w3.org/2000/svg">
  <defs
     id="defs6">
    <pattern
       patternTransform="matrix(11.2343,0,0,11.2343,9252,-2741)"
       patternUnits="userSpaceOnUse"
       x="0"
       y="0"
       width="1200"
       height="1200"
       id="pattern136">
      <g
         transform="scale(0.1)"
         id="g134">
         <path
           d="m 12139.1,-13661.3 0,15322.64 -278.2,0 0,-15322.64 278.2,0"
           style="fill:#000000;fill-opacity:1;fill-rule:nonzero;stroke:none"
           id="path14" />
        <path
           d="m 12139.1,-13661.3 0,15322.64 -278.2,0 0,-15322.64 278.2,0"
           style="fill:#000000;fill-opacity:1;fill-rule:nonzero;stroke:none"
           id="path16" />
        <path
           d="m 139.145,-13661.3 0,15322.64 -278.293,0 0,-15322.64 278.293,0"
           style="fill:#000000;fill-opacity:1;fill-rule:nonzero;stroke:none"
           id="path18" />
        <path
           d="m 799.145,-13661.3 0,15322.64 -278.293,0 0,-15322.64 278.293,0"
           style="fill:#050405;fill-opacity:1;fill-rule:nonzero;stroke:none"
           id="path20" />
        <path
           d="m 1499.15,-13661.3 0,15322.64 -278.3,0 0,-15322.64 278.3,0"
           style="fill:#000000;fill-opacity:1;fill-rule:nonzero;stroke:none"
           id="path22" />
        <path
           d="m 2209.15,-13661.3 0,15322.64 -278.3,0 0,-15322.64 278.3,0"
           style="fill:#000000;fill-opacity:1;fill-rule:nonzero;stroke:none"
           id="path24" />
        <path
           d="m 2909.15,-13661.3 0,15322.64 -278.3,0 0,-15322.64 278.3,0"
           style="fill:#050500;fill-opacity:1;fill-rule:nonzero;stroke:none"
           id="path26" />
        <path
           d="m 3609.15,-13661.3 0,15322.64 -278.3,0 0,-15322.64 278.3,0"
           style="fill:#000000;fill-opacity:1;fill-rule:nonzero;stroke:none"
           id="path28" /> 
         <path
           d="m 4319.15,-13661.3 0,15322.64 -278.3,0 0,-15322.64 278.3,0"
           style="fill:#050405;fill-opacity:1;fill-rule:nonzero;stroke:none"
           id="path30" />
        <path
           d="m 5009.15,-13661.3 0,15322.64 -278.3,0 0,-15322.64 278.3,0"
           style="fill:#000000;fill-opacity:1;fill-rule:nonzero;stroke:none"
           id="path32" />
        <path
           d="m 5709.15,-13661.3 0,15322.64 -278.3,0 0,-15322.64 278.3,0"
           style="fill:#040203;fill-opacity:1;fill-rule:nonzero;stroke:none"
           id="path34" />
        <path
           d="m 6419.15,-13661.3 0,15322.64 -278.3,0 0,-15322.64 278.3,0"
           style="fill:#000000;fill-opacity:1;fill-rule:nonzero;stroke:none"
           id="path36" />
        <path
           d="m 7119.15,-13661.3 0,15322.64 -278.3,0 0,-15322.64 278.3,0"
           style="fill:#000000;fill-opacity:1;fill-rule:nonzero;stroke:none"
           id="path38" />
        <path
           d="m 7819.15,-13661.3 0,15322.64 -278.3,0 0,-15322.64 278.3,0"
           style="fill:#000000;fill-opacity:1;fill-rule:nonzero;stroke:none"
           id="path40" />
        <path
           d="m 8529.15,-13661.3 0,15322.64 -278.3,0 0,-15322.64 278.3,0"
           style="fill:#000000;fill-opacity:1;fill-rule:nonzero;stroke:none"
           id="path42" />
        <path
           d="m 9279.15,-13661.3 0,15322.64 -278.3,0 0,-15322.64 278.3,0"
           style="fill:#050405;fill-opacity:1;fill-rule:nonzero;stroke:none"
           id="path44" />
        <path
           d="m 9979.15,-13661.3 0,15322.64 -278.3,0 0,-15322.64 278.3,0"
           style="fill:#050500;fill-opacity:1;fill-rule:nonzero;stroke:none"
           id="path46" />
        <path
           d="m 10679.1,-13661.3 0,15322.64 -278.2,0 0,-15322.64 278.2,0"
           style="fill:#000000;fill-opacity:1;fill-rule:nonzero;stroke:none"
           id="path48" />
        <path
           d="m 11389.1,-13661.3 0,15322.64 -278.2,0 0,-15322.64 278.2,0"
           style="fill:#050500;fill-opacity:1;fill-rule:nonzero;stroke:none"
           id="path50" />
        <path
           d="m 139.145,-13661.3 0,15322.64 -278.293,0 0,-15322.64 278.293,0"
           style="fill:#000000;fill-opacity:1;fill-rule:nonzero;stroke:none"
           id="path52" />
        <path
           d="m 12139.1,-1661.34 0,15322.64 -278.2,0 0,-15322.64 278.2,0"
           style="fill:#000000;fill-opacity:1;fill-rule:nonzero;stroke:none"
           id="path54" />
        <path
           d="m 12139.1,-1661.34 0,15322.64 -278.2,0 0,-15322.64 278.2,0"
           style="fill:#000000;fill-opacity:1;fill-rule:nonzero;stroke:none"
           id="path56" />
         <path
           d="m 139.145,-1661.34 0,15322.64 -278.293,0 0,-15322.64 278.293,0"
           style="fill:#000000;fill-opacity:1;fill-rule:nonzero;stroke:none"
           id="path58" />
        <path
           d="m 799.145,-1661.34 0,15322.64 -278.293,0 0,-15322.64 278.293,0"
           style="fill:#050405;fill-opacity:1;fill-rule:nonzero;stroke:none"
           id="path60" />
        <path
           d="m 1499.15,-1661.34 0,15322.64 -278.3,0 0,-15322.64 278.3,0"
           style="fill:#000000;fill-opacity:1;fill-rule:nonzero;stroke:none"
           id="path62" />
        <path
           d="m 2209.15,-1661.34 0,15322.64 -278.3,0 0,-15322.64 278.3,0"
           style="fill:#000000;fill-opacity:1;fill-rule:nonzero;stroke:none"
           id="path64" />
        <path
           d="m 2909.15,-1661.34 0,15322.64 -278.3,0 0,-15322.64 278.3,0"
           style="fill:#050500;fill-opacity:1;fill-rule:nonzero;stroke:none"
           id="path66" />
        <path
           d="m 3609.15,-1661.34 0,15322.64 -278.3,0 0,-15322.64 278.3,0"
           style="fill:#000000;fill-opacity:1;fill-rule:nonzero;stroke:none"
           id="path68" />
        <path
           d="m 4319.15,-1661.34 0,15322.64 -278.3,0 0,-15322.64 278.3,0"
           style="fill:#050405;fill-opacity:1;fill-rule:nonzero;stroke:none"
           id="path70" />
        <path
           d="m 5009.15,-1661.34 0,15322.64 -278.3,0 0,-15322.64 278.3,0"
           style="fill:#000000;fill-opacity:1;fill-rule:nonzero;stroke:none"
           id="path72" />
        <path
           d="m 5709.15,-1661.34 0,15322.64 -278.3,0 0,-15322.64 278.3,0"
           style="fill:#040203;fill-opacity:1;fill-rule:nonzero;stroke:none"
           id="path74" />
        <path
           d="m 6419.15,-1661.34 0,15322.64 -278.3,0 0,-15322.64 278.3,0"
           style="fill:#000000;fill-opacity:1;fill-rule:nonzero;stroke:none"
           id="path76" />
        <path
           d="m 7119.15,-1661.34 0,15322.64 -278.3,0 0,-15322.64 278.3,0"
           style="fill:#000000;fill-opacity:1;fill-rule:nonzero;stroke:none"
           id="path78" />
        <path
           d="m 7819.15,-1661.34 0,15322.64 -278.3,0 0,-15322.64 278.3,0"
           style="fill:#000000;fill-opacity:1;fill-rule:nonzero;stroke:none"
           id="path80" /> -->
        <path
           d="m 8529.15,-1661.34 0,15322.64 -278.3,0 0,-15322.64 278.3,0"
           style="fill:#ff0000;fill-opacity:1;fill-rule:nonzero;stroke:none"
           id="path82" />
        <path
           d="m 9279.15,-1661.34 0,15322.64 -278.3,0 0,-15322.64 278.3,0"
           style="fill:#050405;fill-opacity:1;fill-rule:nonzero;stroke:none"
           id="path84" />
        <path
           d="m 9979.15,-1661.34 0,15322.64 -278.3,0 0,-15322.64 278.3,0"
           style="fill:#050500;fill-opacity:1;fill-rule:nonzero;stroke:none"
           id="path86" />
        <path
           d="m 10679.1,-1661.34 0,15322.64 -278.2,0 0,-15322.64 278.2,0"
           style="fill:#ff0000;fill-opacity:1;fill-rule:nonzero;stroke:none"
           id="path88" />
        <path
           d="m 11389.1,-1661.34 0,15322.64 -278.2,0 0,-15322.64 278.2,0"
           style="fill:#050500;fill-opacity:1;fill-rule:nonzero;stroke:none"
           id="path90" />
        <path
           d="m 139.145,-1661.34 0,15322.64 -278.293,0 0,-15322.64 278.293,0"
           style="fill:#ff0000;fill-opacity:1;fill-rule:nonzero;stroke:none"
           id="path92" />
        <path
           d="m 12139.1,10338.7 0,15322.6 -278.2,0 0,-15322.6 278.2,0"
           style="fill:#ff0000;fill-opacity:1;fill-rule:nonzero;stroke:none"
           id="path94" />
        <path
           d="m 12139.1,10338.7 0,15322.6 -278.2,0 0,-15322.6 278.2,0"
           style="fill:#ff0000;fill-opacity:1;fill-rule:nonzero;stroke:none"
           id="path96" />
        <path
           d="m 139.145,10338.7 0,15322.6 -278.293,0 0,-15322.6 278.293,0"
           style="fill:#ff0000;fill-opacity:1;fill-rule:nonzero;stroke:none"
           id="path98" />
        <path
           d="m 799.145,10338.7 0,15322.6 -278.293,0 0,-15322.6 278.293,0"
           style="fill:#050405;fill-opacity:1;fill-rule:nonzero;stroke:none"
           id="path100" />
        <path
           d="m 1499.15,10338.7 0,15322.6 -278.3,0 0,-15322.6 278.3,0"
           style="fill:#ff0000;fill-opacity:1;fill-rule:nonzero;stroke:none"
           id="path102" />
        <path
           d="m 2209.15,10338.7 0,15322.6 -278.3,0 0,-15322.6 278.3,0"
           style="fill:#ff0000;fill-opacity:1;fill-rule:nonzero;stroke:none"
           id="path104" />
        <path
           d="m 2909.15,10338.7 0,15322.6 -278.3,0 0,-15322.6 278.3,0"
           style="fill:#050500;fill-opacity:1;fill-rule:nonzero;stroke:none"
           id="path106" />
        <path
           d="m 3609.15,10338.7 0,15322.6 -278.3,0 0,-15322.6 278.3,0"
           style="fill:#000000;fill-opacity:1;fill-rule:nonzero;stroke:none"
           id="path108" />
        <path
           d="m 4319.15,10338.7 0,15322.6 -278.3,0 0,-15322.6 278.3,0"
           style="fill:#050405;fill-opacity:1;fill-rule:nonzero;stroke:none"
           id="path110" />
        <path
           d="m 5009.15,10338.7 0,15322.6 -278.3,0 0,-15322.6 278.3,0"
           style="fill:#000000;fill-opacity:1;fill-rule:nonzero;stroke:none"
           id="path112" />
        <path
           d="m 5709.15,10338.7 0,15322.6 -278.3,0 0,-15322.6 278.3,0"
           style="fill:#040203;fill-opacity:1;fill-rule:nonzero;stroke:none"
           id="path114" />
        <path
           d="m 6419.15,10338.7 0,15322.6 -278.3,0 0,-15322.6 278.3,0"
           style="fill:#000000;fill-opacity:1;fill-rule:nonzero;stroke:none"
           id="path116" />
        <path
           d="m 7119.15,10338.7 0,15322.6 -278.3,0 0,-15322.6 278.3,0"
           style="fill:#000000;fill-opacity:1;fill-rule:nonzero;stroke:none"
           id="path118" />
        <path
           d="m 7819.15,10338.7 0,15322.6 -278.3,0 0,-15322.6 278.3,0"
           style="fill:#000000;fill-opacity:1;fill-rule:nonzero;stroke:none"
           id="path120" />
        <path
           d="m 8529.15,10338.7 0,15322.6 -278.3,0 0,-15322.6 278.3,0"
           style="fill:#000000;fill-opacity:1;fill-rule:nonzero;stroke:none"
           id="path122" />
        <path
           d="m 9279.15,10338.7 0,15322.6 -278.3,0 0,-15322.6 278.3,0"
           style="fill:#050405;fill-opacity:1;fill-rule:nonzero;stroke:none"
           id="path124" />
        <path
           d="m 9979.15,10338.7 0,15322.6 -278.3,0 0,-15322.6 278.3,0"
           style="fill:#050500;fill-opacity:1;fill-rule:nonzero;stroke:none"
           id="path126" />
        <path
           d="m 10679.1,10338.7 0,15322.6 -278.2,0 0,-15322.6 278.2,0"
           style="fill:#000000;fill-opacity:1;fill-rule:nonzero;stroke:none"
           id="path128" />
        <path
           d="m 11389.1,10338.7 0,15322.6 -278.2,0 0,-15322.6 278.2,0"
           style="fill:#050500;fill-opacity:1;fill-rule:nonzero;stroke:none"
           id="path130" />
        <path
           d="m 139.145,10338.7 0,15322.6 -278.293,0 0,-15322.6 278.293,0"
           style="fill:#000000;fill-opacity:1;fill-rule:nonzero;stroke:none"
           id="path132" />
      </g>
    </pattern>
  </defs>
  <sodipodi:namedview
     id="namedview4"
     pagecolor="#ffffff"
     bordercolor="#000000"
     borderopacity="0.25"
     inkscape:showpageshadow="2"
     inkscape:pageopacity="0.0"
     inkscape:pagecheckerboard="0"
     inkscape:deskcolor="#d1d1d1" />
  <g
     id="g8"
     inkscape:groupmode="layer"
     inkscape:label="ink_ext_XXXXXX"
     transform="matrix(1.3333333,0,0,-1.3333333,0,1066.6667)">
    <g
       id="g10"
       transform="scale(0.1)">
      <path
         d="M 12000,0 H 0 V 8000 H 12000 V 0"
         style="fill:#f9f7f7;fill-opacity:1;fill-rule:nonzero;stroke:none"
         id="path12" />
      <path
         d="M 12000,0 H 0 V 8000 H 12000 V 0"
         style="fill:url(#pattern136);fill-opacity:1;fill-rule:nonzero;stroke:none"
         id="path138" />
    </g>
  </g>
</svg>
